<?xml version="1.0" encoding="UTF-8" standalone="no"?>
<!-- Created with Inkscape (http://www.inkscape.org/) -->

<svg
   width="200"
   height="200"
   viewBox="0 0 200 200"
   version="1.1"
   id="svg5"
   xmlns="http://www.w3.org/2000/svg"
   xmlns:svg="http://www.w3.org/2000/svg">
  <defs
     id="defs2">
    <clipPath
       clipPathUnits="userSpaceOnUse"
       id="clipPath3853">
      <g
         id="use3855"
         style="fill:none;stroke:#000000;stroke-width:0.1;stroke-dasharray:none;stroke-opacity:1">
        <path
           id="path10473"
           style="fill:none;stroke:#000000;stroke-width:0.1;stroke-dasharray:none;stroke-opacity:1"
           d="M 200,100 A 100,100 0 0 1 100,200 100,100 0 0 1 0,100 100,100 0 0 1 100,0 100,100 0 0 1 200,100 Z" />
      </g>
    </clipPath>
  </defs>
  <g
     id="layer1"
     style="display:inline">
    <g
       id="g10479"
       transform="matrix(0.71932958,0,0,0.85078733,27.968676,14.803823)">
      <path
         style="fill:#000000;fill-opacity:1;stroke:#000000;stroke-width:0.0246505;stroke-dasharray:none;stroke-opacity:1"
         d="M 93.771208,199.64779 C 70.610021,198.01443 49.484344,188.97421 32.423366,173.39545 16.682611,159.02222 5.751836,139.23344 1.853158,118.05199 -0.00846122,107.93784 -0.27498793,96.486186 1.1159295,86.376048 3.6661056,67.839627 11.507471,50.255152 23.705111,35.719197 26.766399,32.071053 33.073993,25.835513 36.705219,22.86759 50.998011,11.185614 68.320058,3.6000094 86.376048,1.1159295 96.661104,-0.29905248 108.4983,0.00875626 118.67272,1.9557565 c 14.79929,2.8320281 29.14417,9.1747115 41.16192,18.2000155 19.24005,14.449226 32.70376,35.456431 37.70157,58.825115 1.63133,7.627775 2.1803,12.84795 2.19055,20.829702 0.0114,8.894151 -0.78086,15.619371 -2.81683,23.911011 -10.05962,40.96864 -44.64816,71.11003 -86.70843,75.56007 -4.27,0.45177 -12.587503,0.63711 -16.430292,0.36612 z m 15.330932,-24.28383 c 22.87393,-2.83185 42.93032,-15.52528 55.19531,-34.93241 2.20183,-3.484 5.44311,-10.04855 6.85711,-13.88771 2.13505,-5.79688 3.60493,-12.02833 4.35798,-18.47533 0.40775,-3.49079 0.41286,-12.531974 0.009,-16.022839 -1.72224,-14.888453 -7.06013,-27.944027 -16.07539,-39.317605 -2.66765,-3.365481 -8.7789,-9.491824 -12.06012,-12.089897 -10.6417,-8.426112 -22.86506,-13.703575 -36.59827,-15.801384 -4.74295,-0.724507 -13.361788,-0.887749 -18.548562,-0.351312 -35.87296,3.710129 -64.043686,31.880855 -67.753813,67.753815 -0.536439,5.186774 -0.373197,13.805612 0.35131,18.548562 0.673805,4.41104 1.619951,8.5381 2.795577,12.19424 9.022476,28.05948 33.01178,48.25195 62.076465,52.25146 5.74708,0.79085 13.630483,0.84385 19.393313,0.13041 z"
         id="path10357" />
      <rect
         style="fill:#000000;fill-opacity:1;stroke:#000000;stroke-width:0.192618;stroke-dasharray:none;stroke-opacity:1"
         id="rect10419"
         width="24.083778"
         height="87.342644"
         x="-1.7069855"
         y="183.14911"
         transform="rotate(-42.710074)" />
    </g>
    <path
       style="fill:#000000;stroke:#000000;stroke-width:1px;stroke-linecap:butt;stroke-linejoin:miter;stroke-opacity:1"
       d="M 20,10 25,30 16,29 9.9999895,9.999824 Z"
       id="path10662" />
    <path
       style="display:inline;fill:#000000;stroke:#000000;stroke-width:1px;stroke-linecap:butt;stroke-linejoin:miter;stroke-opacity:1"
       d="m 36.341723,10 5,20 -9,-1 -6.000011,-19.000176 z"
       id="path10662-7" />
    <path
       style="display:inline;fill:#000000;stroke:#000000;stroke-width:1px;stroke-linecap:butt;stroke-linejoin:miter;stroke-opacity:1"
       d="m 175.65948,10.500188 -5,20 9,-1 6.00001,-19.000176 z"
       id="path10662-6" />
    <path
       style="display:inline;fill:#000000;stroke:#000000;stroke-width:1px;stroke-linecap:butt;stroke-linejoin:miter;stroke-opacity:1"
       d="m 160.73279,10.500188 -5,20 9,-1 6.00001,-19.000176 z"
       id="path10662-6-5" />
  </g>
</svg>
